<?xml version="1.0" encoding="UTF-8"?>
<svg version="1.1" xmlns="http://www.w3.org/2000/svg" width="256" height="256">
<path d="M0 0 C0.90717773 0.01256836 1.81435547 0.02513672 2.74902344 0.03808594 C5.43807622 0.08499359 8.12449636 0.16229596 10.8125 0.25 C11.62968506 0.26401855 12.44687012 0.27803711 13.28881836 0.29248047 C20.31029288 0.58501159 24.63408684 2.46716658 29.546875 7.7265625 C30.27390625 8.68304688 31.0009375 9.63953125 31.75 10.625 C34.11329456 13.70719885 35.75583578 15.83722385 39 18 C42.16017443 18.30302894 42.16017443 18.30302894 45.82299805 18.25537109 C46.51284286 18.25899155 47.20268768 18.262612 47.91343689 18.26634216 C49.41120265 18.27323334 50.90899351 18.27574212 52.40677452 18.27439499 C54.78273301 18.27342896 57.15824002 18.28638275 59.53413391 18.30337524 C66.28924 18.34961047 73.0443017 18.37423134 79.79956055 18.38085938 C83.93348039 18.38589326 88.06693219 18.41024256 92.20069313 18.44618607 C93.77101637 18.45594561 95.34140434 18.4583371 96.91174889 18.45301437 C112.2435273 18.40350877 112.2435273 18.40350877 119 23 C122.86444689 27.06262365 124.119113 30.17893527 124.14717102 35.71746826 C124.15790398 37.17254288 124.15790398 37.17254288 124.16885376 38.65701294 C124.17154266 39.71991547 124.17423157 40.78281799 124.17700195 41.87792969 C124.18357315 42.9985379 124.19014435 44.11914612 124.19691467 45.27371216 C124.21665847 48.98976709 124.22831253 52.70578159 124.23828125 56.421875 C124.24235678 57.69016396 124.2464323 58.95845291 124.25063133 60.26517487 C124.26934452 66.28530824 124.28390936 72.30541708 124.2922433 78.32557178 C124.30201044 85.26573789 124.32831805 92.20558461 124.36874419 99.14563823 C124.40259142 105.16363025 124.41439227 111.18146772 124.41844749 117.19956207 C124.42332061 119.7560162 124.43495509 122.31246673 124.45348549 124.86885834 C124.47781511 128.44766191 124.47692265 132.02563135 124.4699707 135.60449219 C124.48918579 137.18670059 124.48918579 137.18670059 124.50878906 138.8008728 C124.455731 146.29925869 123.16054444 150.74915429 117.8125 156.25 C109.84112843 161.20996453 101.88878078 161.43397559 92.69677734 161.38818359 C90.73657402 161.39606903 90.73657402 161.39606903 88.73677063 161.40411377 C85.1769435 161.41770451 81.61737934 161.41252391 78.05754805 161.40297651 C74.31990357 161.39534006 70.58228044 161.40243623 66.84463501 161.40713501 C60.57216378 161.41257967 54.29979882 161.40543354 48.02734375 161.39111328 C40.78757424 161.37477494 33.54805807 161.38008896 26.30829465 161.3965925 C20.07618626 161.41022724 13.84415389 161.41211776 7.61203539 161.40427649 C3.89680558 161.3996127 0.18169468 161.39893959 -3.53352737 161.40888596 C-7.67435862 161.41919936 -11.81475603 161.40488589 -15.95556641 161.38818359 C-17.17860977 161.39425629 -18.40165314 161.40032898 -19.66175842 161.40658569 C-26.97234911 161.35197883 -32.25015479 160.89638582 -38.1796875 156.31640625 C-38.73914062 155.73761719 -39.29859375 155.15882813 -39.875 154.5625 C-40.44992188 153.98628906 -41.02484375 153.41007813 -41.6171875 152.81640625 C-44.23163729 149.38217136 -44.12745782 145.74685828 -44.14044189 141.54812622 C-44.14615204 140.44063019 -44.15186218 139.33313416 -44.15774536 138.19207764 C-44.15886322 136.98158752 -44.15998108 135.77109741 -44.16113281 134.52392578 C-44.16609772 133.24550812 -44.17106262 131.96709045 -44.17617798 130.64993286 C-44.1892777 127.14574689 -44.19574199 123.64158007 -44.20018864 120.13737345 C-44.20312281 117.94694545 -44.20722823 115.75652264 -44.21169281 113.56609726 C-44.2253603 106.70929302 -44.23503106 99.8525007 -44.2388947 92.99568379 C-44.24337612 85.08661783 -44.2609309 77.17772464 -44.2898953 69.26871121 C-44.311522 63.15053712 -44.32159948 57.03241161 -44.32293582 50.91419971 C-44.32398299 47.26205921 -44.32987207 43.61008129 -44.34775543 39.95798111 C-44.36731989 35.88350203 -44.36294324 31.80938415 -44.35644531 27.73486328 C-44.3656601 26.52842163 -44.37487488 25.32197998 -44.3843689 24.07897949 C-44.34723623 16.65707951 -43.67643203 12.02859414 -38.625 6.3125 C-28.30574047 -2.77827625 -13.03244884 -0.22136794 0 0 Z M-33 16 C-34.27861615 18.55723229 -34.11336609 20.36737102 -34.09765625 23.2265625 C-34.09443359 24.2578125 -34.09121094 25.2890625 -34.08789062 26.3515625 C-34.07951172 27.43179688 -34.07113281 28.51203125 -34.0625 29.625 C-34.05798828 30.71296875 -34.05347656 31.8009375 -34.04882812 32.921875 C-34.03701776 35.61463789 -34.02054778 38.30729188 -34 41 C-32.78402634 40.51267899 -31.56805267 40.02535797 -30.31523132 39.52326965 C-24.21238048 37.50355033 -18.33264893 37.58681461 -11.95629883 37.62768555 C-10.03757713 37.62220955 -10.03757713 37.62220955 -8.08009338 37.61662292 C-4.59676132 37.60727996 -1.11371348 37.61658171 2.36959624 37.62995505 C6.02628947 37.64133495 9.68297004 37.6371572 13.3396759 37.63520813 C19.47511396 37.63432755 25.61044103 37.64535884 31.74584961 37.66381836 C38.82995595 37.68501072 45.91390016 37.68848844 52.9980318 37.6822564 C59.82976232 37.67655522 66.66143601 37.68221547 73.49315834 37.69342995 C76.39373137 37.69806305 79.29426949 37.69895542 82.1948452 37.6968441 C86.24481016 37.69460478 90.29454947 37.70909321 94.34448242 37.7253418 C95.54306885 37.72286438 96.74165527 37.72038696 97.9765625 37.71783447 C99.63542732 37.72846169 99.63542732 37.72846169 101.32780457 37.73930359 C102.76209446 37.74238289 102.76209446 37.74238289 104.22535992 37.74552441 C107.37964372 38.03481895 110.03948224 38.89915179 113 40 C113.86850174 37.75124253 113.86850174 37.75124253 114 35 C111.88388365 31.67467431 110.77269733 30.25756578 107 29 C104.64519796 28.8865073 102.28735689 28.83333765 99.92993164 28.81054688 C99.21415451 28.80225357 98.49837738 28.79396027 97.76091003 28.78541565 C96.20748659 28.7680279 94.6540371 28.7528576 93.10057259 28.73963928 C90.64180329 28.7185929 88.18316425 28.69157106 85.72447205 28.66296387 C80.50386486 28.6032927 75.2831969 28.55113047 70.0625 28.5 C64.01632675 28.44074148 57.97021779 28.37841373 51.92416191 28.30812073 C49.50236455 28.28157563 47.08056059 28.26074267 44.65870667 28.2401123 C43.17228892 28.22350545 41.68587412 28.20663327 40.19946289 28.18945312 C38.9027919 28.17692505 37.60612091 28.16439697 36.27015686 28.15148926 C33.63982223 28.02963962 31.49335689 27.78524432 29 27 C29 26.34 29 25.68 29 25 C28.34 25 27.68 25 27 25 C26.71125 24.236875 26.4225 23.47375 26.125 22.6875 C25.03730987 19.84970692 25.03730987 19.84970692 23 17 C22.34 17 21.68 17 21 17 C20.8453125 16.071875 20.8453125 16.071875 20.6875 15.125 C20.12474627 12.63473516 20.12474627 12.63473516 17 11 C14.91749996 10.67809614 14.91749996 10.67809614 12.60791016 10.69360352 C11.72334137 10.67761612 10.83877258 10.66162872 9.92739868 10.64515686 C8.97424774 10.63979416 8.0210968 10.63443146 7.0390625 10.62890625 C6.05634369 10.61987778 5.07362488 10.6108493 4.06112671 10.60154724 C1.98153738 10.58703618 -0.0980977 10.57815588 -2.17773438 10.57446289 C-5.35625325 10.56257014 -8.53282866 10.51339546 -11.7109375 10.46289062 C-13.73176136 10.45342599 -15.75259714 10.44619115 -17.7734375 10.44140625 C-18.72253998 10.42187393 -19.67164246 10.40234161 -20.64950562 10.38221741 C-26.50711215 10.42217926 -29.30659095 11.0262279 -33 16 Z M-32.40614319 52.58824158 C-34.37861283 56.81044641 -34.55837928 59.99208514 -34.50170898 64.58813477 C-34.50711197 65.4295401 -34.51251495 66.27094543 -34.51808167 67.1378479 C-34.53054123 69.90606365 -34.51409807 72.67323382 -34.49609375 75.44140625 C-34.49624879 77.37141474 -34.49773857 79.30142354 -34.50050354 81.23143005 C-34.50188624 85.27055676 -34.48934982 89.30932782 -34.46655273 93.34838867 C-34.43814953 98.5224551 -34.44091236 103.69593164 -34.45364285 108.87004185 C-34.46060111 112.85321583 -34.45280934 116.83625372 -34.44038582 120.81941032 C-34.43587411 122.72716691 -34.43553207 124.63493811 -34.43945122 126.542696 C-34.44236536 129.20918814 -34.42584757 131.87487008 -34.40405273 134.54125977 C-34.40855438 135.32737137 -34.41305603 136.11348297 -34.41769409 136.92341614 C-34.35639664 141.44266219 -33.90514893 144.4689614 -31 148 C-27.78570025 150.03163177 -25.23773016 150.25622495 -21.47219849 150.27415466 C-20.34787415 150.28412979 -19.2235498 150.29410492 -18.06515503 150.30438232 C-16.83596344 150.305047 -15.60677185 150.30571167 -14.34033203 150.30639648 C-13.04240723 150.31472 -11.74448242 150.32304352 -10.40722656 150.33161926 C-6.84931413 150.35354941 -3.29148764 150.36236106 0.26648474 150.36744571 C2.49042242 150.37109086 4.71433764 150.37733172 6.93826675 150.3844471 C14.69990273 150.40893585 22.46147191 150.42199237 30.22314453 150.42553711 C37.45327122 150.42917259 44.68297347 150.45906992 51.91297042 150.50094169 C58.12457318 150.5356519 64.33603531 150.55108567 70.54773438 150.55178314 C74.25587623 150.55257568 77.96358557 150.56130297 81.67162704 150.58978081 C85.80856973 150.62084283 89.94450268 150.61189852 94.08154297 150.59936523 C95.3066861 150.61419952 96.53182922 150.62903381 97.7940979 150.64431763 C104.6617076 150.68822598 104.6617076 150.68822598 110.74490356 147.90003967 C114.90721793 142.54732987 114.15119705 136.27894566 114.16113281 129.75732422 C114.16609772 128.96454071 114.17106262 128.1717572 114.17617798 127.35494995 C114.19068239 124.75485341 114.19757906 122.1548177 114.203125 119.5546875 C114.20888264 117.73821004 114.21464029 115.92173258 114.22039795 114.10525513 C114.23087208 110.30763467 114.23673932 106.51003519 114.24023438 102.71240234 C114.2457358 97.84894287 114.26981387 92.98576098 114.29820633 88.12238884 C114.31682806 84.37516463 114.32203789 80.62800769 114.32357025 76.88074112 C114.32659434 75.08739822 114.33461465 73.29405643 114.34775543 71.50075912 C114.36481917 68.99491837 114.36293598 66.48976206 114.35644531 63.98388672 C114.37026749 62.87720642 114.37026749 62.87720642 114.3843689 61.74816895 C114.34845014 57.31912042 113.95221849 54.37347342 111 51 C104.85715016 47.23098273 98.70433177 47.58090796 91.65820312 47.62768555 C90.42972153 47.62403488 89.20123993 47.62038422 87.93553162 47.61662292 C84.58207254 47.60992623 81.22917255 47.6166012 77.87576866 47.62995505 C74.35699832 47.641318 70.83824144 47.63715831 67.31945801 47.63520813 C61.41165393 47.63432668 55.50396492 47.64537426 49.59619141 47.66381836 C42.77798631 47.68498372 35.95994969 47.68849496 29.14171839 47.6822564 C22.56735173 47.67655024 15.99304406 47.68222313 9.41868591 47.69342995 C6.62779137 47.69805938 3.83693309 47.69895699 1.04603577 47.6968441 C-2.85544037 47.69460068 -6.75675811 47.70911036 -10.65820312 47.7253418 C-11.80958267 47.72286438 -12.96096222 47.72038696 -14.14723206 47.71783447 C-24.236721 47.48118306 -24.236721 47.48118306 -32.40614319 52.58824158 Z " fill="#0C0C0C" transform="translate(87,47)"/>
</svg>
